<svg width="21" height="23" viewBox="0 0 21 23" fill="none" xmlns="http://www.w3.org/2000/svg">
<path fill-rule="evenodd" clip-rule="evenodd" d="M10.25 0.5C8.17679 0.5 6.82077 1.42686 6.01531 2.65002C5.40929 3.5703 5.13102 4.62913 5.03786 5.5306C3.03813 6.10412 1.7779 7.52936 1.03034 8.88856C0.292832 10.2295 0 11.6028 0 12.25V12.2578V12.2657V12.2736V12.2816V12.2896V12.2976V12.3057V12.3138V12.322V12.3302V12.3384V12.3467V12.3551V12.3634V12.3718V12.3803V12.3888V12.3973V12.4059V12.4145V12.4231V12.4318V12.4405V12.4493V12.4581V12.4669V12.4758V12.4847V12.4937V12.5027V12.5117V12.5208V12.5299V12.539V12.5482V12.5574V12.5667V12.5759V12.5853V12.5946V12.604V12.6135V12.623V12.6325V12.642V12.6516V12.6612V12.6709V12.6806V12.6903V12.7V12.7098V12.7197V12.7295V12.7394V12.7494V12.7593V12.7693V12.7794V12.7895V12.7996V12.8097V12.8199V12.8301V12.8403V12.8506V12.8609V12.8712V12.8816V12.892V12.9025V12.9129V12.9234V12.934V12.9445V12.9551V12.9658V12.9764V12.9871V12.9978V13.0086V13.0194V13.0302V13.041V13.0519V13.0628V13.0738V13.0847V13.0957V13.1068V13.1178V13.1289V13.14V13.1512V13.1624V13.1736V13.1848V13.1961V13.2074V13.2187V13.2301V13.2414V13.2528V13.2643V13.2758V13.2872V13.2988V13.3103V13.3219V13.3335V13.3451V13.3568V13.3685V13.3802V13.3919V13.4037V13.4155V13.4273V13.4391V13.451V13.4629V13.4748V13.4868V13.4987V13.5107V13.5228V13.5348V13.5469V13.559V13.5711V13.5832V13.5954V13.6076V13.6198V13.6321V13.6443V13.6566V13.6689V13.6813V13.6936V13.706V13.7184V13.7309V13.7433V13.7558V13.7683V13.7808V13.7934V13.8059V13.8185V13.8311V13.8437V13.8564V13.8691V13.8818V13.8945V13.9072V13.92V13.9328V13.9456V13.9584V13.9712V13.9841V13.997V14.0099V14.0228V14.0357V14.0487V14.0617V14.0747V14.0877V14.1007V14.1138V14.1268V14.1399V14.153V14.1662V14.1793V14.1925V14.2057V14.2189V14.2321V14.2453V14.2586V14.2719V14.2851V14.2985V14.3118V14.3251V14.3385V14.3518V14.3652V14.3786V14.3921V14.4055V14.419V14.4324V14.4459V14.4594V14.4729V14.4864V14.5V14.5136V14.5271V14.5407V14.5543V14.5679V14.5816V14.5952V14.6089V14.6226V14.6362V14.6499V14.6637V14.6774V14.6911V14.7049V14.7186V14.7324V14.7462V14.76V14.7738V14.7877V14.8015V14.8154V14.8292V14.8431V14.857V14.8709V14.8848V14.8987V14.9127V14.9266V14.9406V14.9545V14.9685V14.9825V14.9965V15.0105V15.0245V15.0385V15.0526V15.0666V15.0807V15.0947V15.1088V15.1229V15.137V15.1511V15.1652V15.1793V15.1934V15.2076V15.2217V15.2358V15.25V15.2642V15.2783V15.2925V15.3067V15.3209V15.3351V15.3493V15.3635V15.3777V15.392V15.4062V15.4204V15.4347V15.4489V15.4632V15.4774V15.4917V15.506V15.5203V15.5346V15.5488V15.5631V15.5774V15.5917V15.606V15.6203V15.6347V15.649V15.6633V15.6776V15.692V15.7063V15.7206V15.735V15.7493V15.7637V15.778V15.7924V15.8067V15.8211V15.8354V15.8498V15.8642V15.8785V15.8929V15.9073V15.9216V15.936V15.9504V15.9648V15.9791V15.9935V16.0079V16.0223V16.0366V16.051V16.0654V16.0798V16.0941V16.1085V16.1229V16.1373V16.1516V16.166V16.1804V16.1948V16.2091V16.2235V16.2379V16.2522V16.2666V16.281V16.2953V16.3097V16.324V16.3384V16.3527V16.3671V16.3814V16.3958V16.4101V16.4245V16.4388V16.4531V16.4674V16.4818V16.4961V16.5104V16.5247V16.539V16.5533V16.5676V16.5819V16.5962V16.6105V16.6248V16.639V16.6533V16.6676V16.6818V16.6961V16.7103V16.7245V16.7388V16.753V16.7672V16.7814V16.7956V16.8098V16.824V16.8382V16.8524V16.8666V16.8807V16.8949V16.909V16.9232V16.9373V16.9514V16.9655V16.9796V16.9937V17.0078V17.0219V17.036V17.05V17.0641V17.0781V17.0922V17.1062V17.1202V17.1342V17.1482V17.1622V17.1762V17.1901V17.2041V17.218V17.2319V17.2459V17.2598V17.2737V17.2875V17.3014V17.3153V17.3291V17.343V17.3568V17.3706V17.3844V17.3982V17.412V17.4257V17.4395V17.4532V17.467V17.4807V17.4944V17.5081V17.5217V17.5354V17.549V17.5627V17.5763V17.5899V17.6035V17.617V17.6306V17.6441V17.6577V17.6712V17.6847V17.6981V17.7116V17.7251V17.7385V17.7519V17.7653V17.7787V17.7921V17.8054V17.8188V17.8321V17.8454V17.8587V17.8719V17.8852V17.8984V17.9116V17.9248V17.938V17.9512V17.9643V17.9774V17.9905V18.0036V18.0167V18.0298V18.0428V18.0558V18.0688V18.0818V18.0947V18.1077V18.1206V18.1335V18.1464V18.1592V18.172V18.1849V18.1977V18.2104V18.2232V18.2359V18.2486V18.2613V18.274V18.2866V18.2993V18.3119V18.3244V18.337V18.3495V18.3621V18.3746V18.387V18.3995V18.4119V18.4243V18.4367V18.449V18.4614V18.4737V18.486V18.4982V18.5105V18.5227V18.5349V18.547V18.5592V18.5713V18.5834V18.5954V18.6075V18.6195V18.6315V18.6435V18.6554V18.6673V18.6792V18.6911V18.7029V18.7147V18.7265V18.7383V18.75C0 20.0913 0.797325 21.0035 1.65062 21.5643C2.49422 22.1186 3.48122 22.3978 4.14393 22.4925L4.17603 22.497L4.2084 22.4988C5.71682 22.5826 8.12777 22.6831 10.4656 22.7124C12.779 22.7415 15.0963 22.7026 16.3733 22.4898C17.6533 22.2765 18.6807 21.8626 19.399 21.2224C20.1399 20.562 20.5 19.7053 20.5 18.75V18.7441V18.7382V18.7322V18.7263V18.7202V18.7141V18.708V18.7019V18.6957V18.6895V18.6832V18.6769V18.6706V18.6642V18.6578V18.6513V18.6448V18.6383V18.6317V18.6251V18.6185V18.6118V18.6051V18.5983V18.5915V18.5847V18.5778V18.5709V18.564V18.557V18.55V18.543V18.5359V18.5288V18.5216V18.5144V18.5072V18.4999V18.4926V18.4853V18.4779V18.4705V18.463V18.4555V18.448V18.4405V18.4329V18.4252V18.4176V18.4099V18.4022V18.3944V18.3866V18.3787V18.3709V18.363V18.355V18.347V18.339V18.331V18.3229V18.3148V18.3066V18.2984V18.2902V18.282V18.2737V18.2654V18.257V18.2486V18.2402V18.2317V18.2232V18.2147V18.2061V18.1975V18.1889V18.1803V18.1716V18.1628V18.1541V18.1453V18.1365V18.1276V18.1187V18.1098V18.1008V18.0918V18.0828V18.0738V18.0647V18.0556V18.0464V18.0372V18.028V18.0187V18.0095V18.0002V17.9908V17.9814V17.972V17.9626V17.9531V17.9436V17.9341V17.9245V17.9149V17.9053V17.8956V17.8859V17.8762V17.8665V17.8567V17.8469V17.837V17.8271V17.8172V17.8073V17.7973V17.7873V17.7773V17.7672V17.7571V17.747V17.7369V17.7267V17.7165V17.7062V17.696V17.6857V17.6754V17.665V17.6546V17.6442V17.6337V17.6233V17.6128V17.6022V17.5917V17.5811V17.5705V17.5598V17.5491V17.5384V17.5277V17.5169V17.5061V17.4953V17.4845V17.4736V17.4627V17.4518V17.4408V17.4298V17.4188V17.4077V17.3967V17.3856V17.3744V17.3633V17.3521V17.3409V17.3297V17.3184V17.3071V17.2958V17.2844V17.2731V17.2617V17.2502V17.2388V17.2273V17.2158V17.2043V17.1927V17.1811V17.1695V17.1579V17.1462V17.1345V17.1228V17.111V17.0993V17.0875V17.0756V17.0638V17.0519V17.04V17.0281V17.0162V17.0042V16.9922V16.9802V16.9681V16.956V16.9439V16.9318V16.9197V16.9075V16.8953V16.8831V16.8708V16.8586V16.8463V16.8339V16.8216V16.8092V16.7968V16.7844V16.772V16.7595V16.747V16.7345V16.722V16.7094V16.6968V16.6842V16.6716V16.6589V16.6463V16.6336V16.6208V16.6081V16.5953V16.5825V16.5697V16.5569V16.544V16.5311V16.5182V16.5053V16.4923V16.4794V16.4664V16.4534V16.4403V16.4273V16.4142V16.4011V16.3879V16.3748V16.3616V16.3484V16.3352V16.322V16.3087V16.2954V16.2821V16.2688V16.2555V16.2421V16.2287V16.2153V16.2019V16.1885V16.175V16.1615V16.148V16.1345V16.1209V16.1074V16.0938V16.0802V16.0665V16.0529V16.0392V16.0255V16.0118V15.9981V15.9843V15.9706V15.9568V15.943V15.9292V15.9153V15.9014V15.8876V15.8737V15.8597V15.8458V15.8318V15.8179V15.8039V15.7898V15.7758V15.7618V15.7477V15.7336V15.7195V15.7054V15.6912V15.6771V15.6629V15.6487V15.6345V15.6202V15.606V15.5917V15.5774V15.5631V15.5488V15.5344V15.5201V15.5057V15.4913V15.4769V15.4625V15.448V15.4336V15.4191V15.4046V15.3901V15.3756V15.361V15.3465V15.3319V15.3173V15.3027V15.2881V15.2734V15.2588V15.2441V15.2294V15.2147V15.2V15.1853V15.1705V15.1557V15.141V15.1262V15.1114V15.0965V15.0817V15.0668V15.0519V15.0371V15.0222V15.0072V14.9923V14.9774V14.9624V14.9474V14.9324V14.9174V14.9024V14.8874V14.8723V14.8573V14.8422V14.8271V14.812V14.7969V14.7817V14.7666V14.7514V14.7363V14.7211V14.7059V14.6907V14.6754V14.6602V14.645V14.6297V14.6144V14.5991V14.5838V14.5685V14.5532V14.5378V14.5225V14.5071V14.4917V14.4763V14.4609V14.4455V14.4301V14.4147V14.3992V14.3837V14.3683V14.3528V14.3373V14.3218V14.3062V14.2907V14.2752V14.2596V14.2441V14.2285V14.2129V14.1973V14.1817V14.166V14.1504V14.1348V14.1191V14.1035V14.0878V14.0721V14.0564V14.0407V14.025V14.0092V13.9935V13.9778V13.962V13.9462V13.9305V13.9147V13.8989V13.8831V13.8673V13.8514V13.8356V13.8198V13.8039V13.788V13.7722V13.7563V13.7404V13.7245V13.7086V13.6927V13.6768V13.6608V13.6449V13.6289V13.613V13.597V13.581V13.5651V13.5491V13.5331V13.5171V13.5011V13.485V13.469V13.453V13.4369V13.4209V13.4048V13.3887V13.3727V13.3566V13.3405V13.3244V13.3083V13.2922V13.2761V13.2599V13.2438V13.2277V13.2115V13.1954V13.1792V13.1631V13.1469V13.1307V13.1145V13.0984V13.0822V13.066V13.0498V13.0335V13.0173V13.0011V12.9849V12.9686V12.9524V12.9362V12.9199V12.9037V12.8874V12.8711V12.8549V12.8386V12.8223V12.806V12.7897V12.7734V12.7571V12.7408V12.7245V12.7082V12.6919V12.6756V12.6593V12.6429V12.6266V12.6103V12.5939V12.5776V12.5612V12.5449V12.5285V12.5122V12.4958V12.4794V12.4631V12.4467V12.4303V12.4139V12.3976V12.3812V12.3648V12.3484V12.332V12.3156V12.2992V12.2828V12.2664V12.25C20.5 9.05772 18.2245 6.63201 15.5285 5.55364L15.3944 5.5H15.25H15.0155C14.9748 4.69163 14.7669 3.70904 14.2824 2.82656C13.5861 1.55832 12.3106 0.5 10.25 0.5ZM14.241 7C14.2476 7.00009 14.2543 7.00009 14.2609 7H15.1021C17.3404 7.94313 19 9.888 19 12.25V12.2664V12.2828V12.2992V12.3156V12.332V12.3484V12.3648V12.3812V12.3976V12.4139V12.4303V12.4467V12.4631V12.4794V12.4958V12.5122V12.5285V12.5449V12.5612V12.5776V12.5939V12.6103V12.6266V12.6429V12.6593V12.6756V12.6919V12.7082V12.7245V12.7408V12.7571V12.7734V12.7897V12.806V12.8223V12.8386V12.8549V12.8711V12.8874V12.9037V12.9199V12.9362V12.9524V12.9686V12.9849V13.0011V13.0173V13.0335V13.0498V13.066V13.0822V13.0984V13.1145V13.1307V13.1469V13.1631V13.1792V13.1954V13.2115V13.2277V13.2438V13.2599V13.2761V13.2922V13.3083V13.3244V13.3405V13.3566V13.3727V13.3887V13.4048V13.4209V13.4369V13.453V13.469V13.485V13.5011V13.5171V13.5331V13.5491V13.5651V13.581V13.597V13.613V13.6289V13.6449V13.6608V13.6768V13.6927V13.7086V13.7245V13.7404V13.7563V13.7722V13.788V13.8039V13.8198V13.8356V13.8514V13.8673V13.8831V13.8989V13.9147V13.9305V13.9462V13.962V13.9778V13.9935V14.0092V14.025V14.0407V14.0564V14.0721V14.0878V14.1035V14.1191V14.1348V14.1504V14.166V14.1817V14.1973V14.2129V14.2285V14.2441V14.2596V14.2752V14.2907V14.3062V14.3218V14.3373V14.3528V14.3683V14.3837V14.3992V14.4147V14.4301V14.4455V14.4609V14.4763V14.4917V14.5071V14.5225V14.5378V14.5532V14.5685V14.5838V14.5991V14.6144V14.6297V14.645V14.6602V14.6754V14.6907V14.7059V14.7211V14.7363V14.7514V14.7666V14.7817V14.7969V14.812V14.8271V14.8422V14.8573V14.8723V14.8874V14.9024V14.9174V14.9324V14.9474V14.9624V14.9774V14.9923V15.0072V15.0222V15.0371V15.0519V15.0668V15.0817V15.0965V15.1114V15.1262V15.141V15.1557V15.1705V15.1853V15.2V15.2147V15.2294V15.2441V15.2588V15.2734V15.2881V15.3027V15.3173V15.3319V15.3465V15.361V15.3756V15.3901V15.4046V15.4191V15.4336V15.448V15.4625V15.4769V15.4913V15.5057V15.5201V15.5344V15.5488V15.5631V15.5774V15.5917V15.606V15.6202V15.6345V15.6487V15.6629V15.6771V15.6912V15.7054V15.7195V15.7336V15.7477V15.7618V15.7758V15.7898V15.8039V15.8179V15.8318V15.8458V15.8597V15.8737V15.8876V15.9014V15.9153V15.9292V15.943V15.9568V15.9706V15.9843V15.9981V16.0118V16.0255V16.0392V16.0529V16.0665V16.0802V16.0938V16.1074V16.1209V16.1345V16.148V16.1615V16.175V16.1885V16.2019V16.2153V16.2287V16.2421V16.2555V16.2688V16.2821V16.2954V16.3087V16.322V16.3352V16.3484V16.3616V16.3748V16.3879V16.4011V16.4142V16.4273V16.4403V16.4534V16.4664V16.4794V16.4923V16.5053V16.5182V16.5311V16.544V16.5569V16.5697V16.5825V16.5953V16.6081V16.6208V16.6336V16.6463V16.6589V16.6716V16.6842V16.6968V16.7094V16.722V16.7345V16.747V16.7595V16.772V16.7844V16.7968V16.8092V16.8216V16.8339V16.8463V16.8586V16.8708V16.8831V16.8953V16.9075V16.9197V16.9318V16.9439V16.956V16.9681V16.9802V16.9922V17.0042V17.0162V17.0281V17.04V17.0519V17.0638V17.0756V17.0875V17.0993V17.111V17.1228V17.1345V17.1462V17.1579V17.1695V17.1811V17.1927V17.2043V17.2158V17.2273V17.2388V17.2502V17.2617V17.2731V17.2844V17.2958V17.3071V17.3184V17.3297V17.3409V17.3521V17.3633V17.3744V17.3856V17.3967V17.4077V17.4188V17.4298V17.4408V17.4518V17.4627V17.4736V17.4845V17.4953V17.5061V17.5169V17.5277V17.5384V17.5491V17.5598V17.5705V17.5811V17.5917V17.6022V17.6128V17.6233V17.6337V17.6442V17.6546V17.665V17.6754V17.6857V17.696V17.7062V17.7165V17.7267V17.7369V17.747V17.7571V17.7672V17.7773V17.7873V17.7973V17.8073V17.8172V17.8271V17.837V17.8469V17.8567V17.8665V17.8762V17.8859V17.8956V17.9053V17.9149V17.9245V17.9341V17.9436V17.9531V17.9626V17.972V17.9814V17.9908V18.0002V18.0095V18.0187V18.028V18.0372V18.0464V18.0556V18.0647V18.0738V18.0828V18.0918V18.1008V18.1098V18.1187V18.1276V18.1365V18.1453V18.1541V18.1628V18.1716V18.1803V18.1889V18.1975V18.2061V18.2147V18.2232V18.2317V18.2402V18.2486V18.257V18.2654V18.2737V18.282V18.2902V18.2984V18.3066V18.3148V18.3229V18.331V18.339V18.347V18.355V18.363V18.3709V18.3787V18.3866V18.3944V18.4022V18.4099V18.4176V18.4252V18.4329V18.4405V18.448V18.4555V18.463V18.4705V18.4779V18.4853V18.4926V18.4999V18.5072V18.5144V18.5216V18.5288V18.5359V18.543V18.55V18.557V18.564V18.5709V18.5778V18.5847V18.5915V18.5983V18.6051V18.6118V18.6185V18.6251V18.6317V18.6383V18.6448V18.6513V18.6578V18.6642V18.6706V18.6769V18.6832V18.6895V18.6957V18.7019V18.708V18.7141V18.7202V18.7263V18.7322V18.7382V18.7441V18.75C19 19.2947 18.8101 19.738 18.401 20.1026C17.9693 20.4874 17.2467 20.8235 16.1267 21.0102C15.0037 21.1974 12.821 21.2419 10.4844 21.2126C8.18965 21.1838 5.81917 21.0855 4.32546 21.003C3.82159 20.9266 3.0768 20.7066 2.47438 20.3107C1.86934 19.9131 1.5 19.4087 1.5 18.75V18.7383V18.7265V18.7147V18.7029V18.6911V18.6792V18.6673V18.6554V18.6435V18.6315V18.6195V18.6075V18.5954V18.5834V18.5713V18.5592V18.547V18.5349V18.5227V18.5105V18.4982V18.486V18.4737V18.4614V18.449V18.4367V18.4243V18.4119V18.3995V18.387V18.3746V18.3621V18.3495V18.337V18.3244V18.3119V18.2993V18.2866V18.274V18.2613V18.2486V18.2359V18.2232V18.2104V18.1977V18.1849V18.172V18.1592V18.1464V18.1335V18.1206V18.1077V18.0947V18.0818V18.0688V18.0558V18.0428V18.0298V18.0167V18.0036V17.9905V17.9774V17.9643V17.9512V17.938V17.9248V17.9116V17.8984V17.8852V17.8719V17.8587V17.8454V17.8321V17.8188V17.8054V17.7921V17.7787V17.7653V17.7519V17.7385V17.7251V17.7116V17.6981V17.6847V17.6712V17.6577V17.6441V17.6306V17.617V17.6035V17.5899V17.5763V17.5627V17.549V17.5354V17.5217V17.5081V17.4944V17.4807V17.467V17.4532V17.4395V17.4257V17.412V17.3982V17.3844V17.3706V17.3568V17.343V17.3291V17.3153V17.3014V17.2875V17.2737V17.2598V17.2459V17.2319V17.218V17.2041V17.1901V17.1762V17.1622V17.1482V17.1342V17.1202V17.1062V17.0922V17.0781V17.0641V17.05V17.036V17.0219V17.0078V16.9937V16.9796V16.9655V16.9514V16.9373V16.9232V16.909V16.8949V16.8807V16.8666V16.8524V16.8382V16.824V16.8098V16.7956V16.7814V16.7672V16.753V16.7388V16.7245V16.7103V16.6961V16.6818V16.6676V16.6533V16.639V16.6248V16.6105V16.5962V16.5819V16.5676V16.5533V16.539V16.5247V16.5104V16.4961V16.4818V16.4674V16.4531V16.4388V16.4245V16.4101V16.3958V16.3814V16.3671V16.3527V16.3384V16.324V16.3097V16.2953V16.281V16.2666V16.2522V16.2379V16.2235V16.2091V16.1948V16.1804V16.166V16.1516V16.1373V16.1229V16.1085V16.0941V16.0798V16.0654V16.051V16.0366V16.0223V16.0079V15.9935V15.9791V15.9648V15.9504V15.936V15.9216V15.9073V15.8929V15.8785V15.8642V15.8498V15.8354V15.8211V15.8067V15.7924V15.778V15.7637V15.7493V15.735V15.7206V15.7063V15.692V15.6776V15.6633V15.649V15.6347V15.6203V15.606V15.5917V15.5774V15.5631V15.5488V15.5346V15.5203V15.506V15.4917V15.4774V15.4632V15.4489V15.4347V15.4204V15.4062V15.392V15.3777V15.3635V15.3493V15.3351V15.3209V15.3067V15.2925V15.2783V15.2642V15.25V15.2358V15.2217V15.2076V15.1934V15.1793V15.1652V15.1511V15.137V15.1229V15.1088V15.0947V15.0807V15.0666V15.0526V15.0385V15.0245V15.0105V14.9965V14.9825V14.9685V14.9545V14.9406V14.9266V14.9127V14.8987V14.8848V14.8709V14.857V14.8431V14.8292V14.8154V14.8015V14.7877V14.7738V14.76V14.7462V14.7324V14.7186V14.7049V14.6911V14.6774V14.6637V14.6499V14.6362V14.6226V14.6089V14.5952V14.5816V14.5679V14.5543V14.5407V14.5271V14.5136V14.5V14.4864V14.4729V14.4594V14.4459V14.4324V14.419V14.4055V14.3921V14.3786V14.3652V14.3518V14.3385V14.3251V14.3118V14.2985V14.2851V14.2719V14.2586V14.2453V14.2321V14.2189V14.2057V14.1925V14.1793V14.1662V14.153V14.1399V14.1268V14.1138V14.1007V14.0877V14.0747V14.0617V14.0487V14.0357V14.0228V14.0099V13.997V13.9841V13.9712V13.9584V13.9456V13.9328V13.92V13.9072V13.8945V13.8818V13.8691V13.8564V13.8437V13.8311V13.8185V13.8059V13.7934V13.7808V13.7683V13.7558V13.7433V13.7309V13.7184V13.706V13.6936V13.6813V13.6689V13.6566V13.6443V13.6321V13.6198V13.6076V13.5954V13.5832V13.5711V13.559V13.5469V13.5348V13.5228V13.5107V13.4987V13.4868V13.4748V13.4629V13.451V13.4391V13.4273V13.4155V13.4037V13.3919V13.3802V13.3685V13.3568V13.3451V13.3335V13.3219V13.3103V13.2988V13.2872V13.2758V13.2643V13.2528V13.2414V13.2301V13.2187V13.2074V13.1961V13.1848V13.1736V13.1624V13.1512V13.14V13.1289V13.1178V13.1068V13.0957V13.0847V13.0738V13.0628V13.0519V13.041V13.0302V13.0194V13.0086V12.9978V12.9871V12.9764V12.9658V12.9551V12.9445V12.934V12.9234V12.9129V12.9025V12.892V12.8816V12.8712V12.8609V12.8506V12.8403V12.8301V12.8199V12.8097V12.7996V12.7895V12.7794V12.7693V12.7593V12.7494V12.7394V12.7295V12.7197V12.7098V12.7V12.6903V12.6806V12.6709V12.6612V12.6516V12.642V12.6325V12.623V12.6135V12.604V12.5946V12.5853V12.5759V12.5667V12.5574V12.5482V12.539V12.5299V12.5208V12.5117V12.5027V12.4937V12.4847V12.4758V12.4669V12.4581V12.4493V12.4405V12.4318V12.4231V12.4145V12.4059V12.3973V12.3888V12.3803V12.3718V12.3634V12.3551V12.3467V12.3384V12.3302V12.322V12.3138V12.3057V12.2976V12.2896V12.2816V12.2736V12.2657V12.2578V12.25C1.5 11.8972 1.70717 10.7705 2.34466 9.61144C2.95769 8.49684 3.91644 7.44557 5.35896 7H5.75H14.241ZM13.5132 5.5C13.4738 4.90871 13.3162 4.1834 12.9676 3.54844C12.4972 2.69168 11.6894 2 10.25 2C8.70105 2 7.80708 2.65647 7.26808 3.47498C6.86109 4.09302 6.64275 4.82968 6.55185 5.5H13.5132Z" fill="white"/>
</svg>
