<svg width="18" height="21" viewBox="0 0 18 21" fill="none" xmlns="http://www.w3.org/2000/svg">
<path fill-rule="evenodd" clip-rule="evenodd" d="M13.3438 5.84375C13.3438 8.24274 11.399 10.1875 9 10.1875C6.60101 10.1875 4.65625 8.24274 4.65625 5.84375C4.65625 3.44476 6.60101 1.5 9 1.5C11.399 1.5 13.3438 3.44476 13.3438 5.84375ZM14.8438 5.84375C14.8438 9.07116 12.2274 11.6875 9 11.6875C5.77259 11.6875 3.15625 9.07116 3.15625 5.84375C3.15625 2.61634 5.77259 0 9 0C12.2274 0 14.8438 2.61634 14.8438 5.84375ZM2 17.5C2 16.3954 2.89543 15.5 4 15.5H14C15.1046 15.5 16 16.3954 16 17.5C16 18.6046 15.1046 19.5 14 19.5H4C2.89543 19.5 2 18.6046 2 17.5ZM0.5 17.5C0.5 15.567 2.067 14 4 14H14C15.933 14 17.5 15.567 17.5 17.5C17.5 19.433 15.933 21 14 21H4C2.067 21 0.5 19.433 0.5 17.5Z" fill="white"/>
</svg>
