<svg width="22" height="22" viewBox="0 0 22 22" fill="none" xmlns="http://www.w3.org/2000/svg">
<path d="M6.6514 0.573435C5.53419 0.626145 4.77125 0.804436 4.10428 1.06652C3.41401 1.33553 2.82894 1.69652 2.24681 2.28074C1.66469 2.86496 1.30622 3.45044 1.03909 4.14177C0.78058 4.8102 0.605438 5.57376 0.556088 6.6916C0.506737 7.80943 0.495817 8.16874 0.501277 11.0201C0.506737 13.8715 0.519337 14.2289 0.573518 15.3491C0.626858 16.4661 0.80452 17.2288 1.0666 17.896C1.33604 18.5862 1.69661 19.1711 2.28104 19.7534C2.86548 20.3358 3.45055 20.6934 4.14355 20.9609C4.81136 21.219 5.57514 21.395 6.69277 21.4439C7.8104 21.4929 8.17014 21.5042 11.0207 21.4987C13.8713 21.4933 14.2302 21.4807 15.3501 21.4276C16.47 21.3744 17.2288 21.1955 17.8962 20.9347C18.5864 20.6646 19.1717 20.3047 19.7536 19.72C20.3356 19.1354 20.6938 18.5495 20.9607 17.8578C21.2195 17.19 21.3952 16.4262 21.4437 15.3094C21.4927 14.1886 21.5042 13.8308 21.4988 10.9798C21.4933 8.12884 21.4805 7.77142 21.4274 6.6517C21.3742 5.53197 21.1964 4.77156 20.9345 4.10397C20.6646 3.41369 20.3045 2.82926 19.7203 2.24651C19.136 1.66376 18.5497 1.30571 17.8582 1.03943C17.1899 0.780915 16.4266 0.604725 15.3089 0.556425C14.1913 0.508125 13.8316 0.495734 10.98 0.501194C8.12834 0.506655 7.77134 0.518835 6.6514 0.573435ZM6.77404 19.555C5.75028 19.5105 5.1944 19.3404 4.82396 19.198C4.3334 19.009 3.98395 18.7805 3.61477 18.4149C3.24558 18.0493 3.01878 17.6986 2.82726 17.2091C2.68341 16.8386 2.51016 16.2834 2.46228 15.2596C2.4102 14.1531 2.39928 13.8209 2.39319 11.0176C2.3871 8.21431 2.39781 7.88251 2.44632 6.7756C2.49 5.75268 2.66115 5.19618 2.80332 4.82595C2.99232 4.33476 3.21996 3.98595 3.58642 3.61698C3.95287 3.248 4.30253 3.02078 4.79246 2.82926C5.16248 2.68478 5.71773 2.513 6.74107 2.46428C7.84841 2.41178 8.18021 2.40128 10.9831 2.39519C13.786 2.3891 14.1187 2.3996 15.2264 2.44832C16.2493 2.49284 16.8061 2.66231 17.1759 2.80532C17.6666 2.99432 18.0159 3.22133 18.3848 3.58842C18.7538 3.9555 18.9813 4.30389 19.1728 4.79487C19.3175 5.16384 19.4892 5.71887 19.5375 6.74284C19.5903 7.85017 19.6022 8.18218 19.6073 10.9849C19.6123 13.7875 19.6024 14.1204 19.5539 15.2269C19.5092 16.2506 19.3395 16.8067 19.1969 17.1776C19.0079 17.6679 18.7801 18.0176 18.4134 18.3863C18.0467 18.7551 17.6975 18.9823 17.2074 19.1738C16.8378 19.3181 16.2819 19.4903 15.2594 19.539C14.152 19.5911 13.8202 19.602 11.0163 19.6081C8.21234 19.6142 7.88159 19.6029 6.77425 19.555M15.3339 5.38812C15.3344 5.63734 15.4087 5.88085 15.5475 6.08783C15.6863 6.29481 15.8834 6.45598 16.1138 6.55095C16.3442 6.64592 16.5976 6.67043 16.842 6.62137C17.0863 6.57231 17.3106 6.45189 17.4865 6.27534C17.6624 6.09879 17.782 5.87404 17.8302 5.62952C17.8784 5.38499 17.8529 5.13168 17.7571 4.90161C17.6613 4.67154 17.4994 4.47505 17.2919 4.337C17.0844 4.19894 16.8407 4.12552 16.5914 4.12602C16.2573 4.12668 15.9372 4.26002 15.7014 4.4967C15.4655 4.73338 15.3334 5.05402 15.3339 5.38812ZM5.60874 11.0105C5.61462 13.9883 8.033 16.3968 11.0102 16.3911C13.9874 16.3854 16.3976 13.9673 16.3919 10.9895C16.3863 8.01166 13.9672 5.60253 10.9896 5.60841C8.012 5.61429 5.60307 8.03308 5.60874 11.0105ZM7.50002 11.0067C7.49865 10.3144 7.70259 9.63733 8.08604 9.06099C8.4695 8.48464 9.01525 8.03495 9.65429 7.76877C10.2933 7.50259 10.9969 7.43189 11.6762 7.56559C12.3554 7.6993 12.9797 8.03142 13.4702 8.51994C13.9606 9.00846 14.2952 9.63146 14.4316 10.3101C14.568 10.9888 14.5001 11.6927 14.2364 12.3328C13.9728 12.9729 13.5253 13.5204 12.9504 13.9061C12.3756 14.2919 11.6993 14.4985 11.0071 14.4998C10.5474 14.5008 10.0921 14.4112 9.66703 14.2362C9.242 14.0611 8.85562 13.8041 8.52995 13.4797C8.20428 13.1553 7.9457 12.77 7.76899 12.3457C7.59227 11.9213 7.50087 11.4663 7.50002 11.0067Z" fill="white" fill-opacity="0.5"/>
</svg>
