<svg width="24" height="18" viewBox="0 0 24 18" fill="none" xmlns="http://www.w3.org/2000/svg">
<path d="M21.1453 4.48105C21.1594 4.67634 21.1594 4.87163 21.1594 5.06872C21.1594 11.074 16.4127 18 7.73311 18V17.9964C5.16915 18 2.65844 17.2926 0.5 15.9589C0.872821 16.0021 1.24751 16.0237 1.62314 16.0246C3.74794 16.0264 5.812 15.3398 7.48363 14.0753C5.46441 14.0384 3.69374 12.7704 3.07518 10.9192C3.78251 11.0506 4.51133 11.0236 5.20559 10.841C3.00416 10.4126 1.42037 8.5497 1.42037 6.38623C1.42037 6.36643 1.42037 6.34754 1.42037 6.32864C2.07632 6.68051 2.81075 6.8758 3.56199 6.8974C1.48858 5.56279 0.849462 2.90615 2.10154 0.829084C4.49732 3.6684 8.03211 5.3945 11.8267 5.57718C11.4464 3.99868 11.9659 2.34459 13.1918 1.23496C15.0924 -0.485733 18.0815 -0.397539 19.868 1.43205C20.9248 1.23136 21.9377 0.857882 22.8646 0.328715C22.5124 1.38075 21.7751 2.27439 20.7903 2.84226C21.7256 2.73606 22.6394 2.49488 23.5 2.1268C22.8665 3.04114 22.0685 3.83759 21.1453 4.48105Z" fill="white" fill-opacity="0.5"/>
</svg>
