<svg width="21" height="21" viewBox="0 0 21 21" fill="none" xmlns="http://www.w3.org/2000/svg">
<path fill-rule="evenodd" clip-rule="evenodd" d="M15.0837 15.81C13.6415 17.1961 11.6823 18.0481 9.52406 18.0481C5.0925 18.0481 1.5 14.4556 1.5 10.0241C1.5 5.5925 5.0925 2 9.52406 2C13.9556 2 17.5481 5.5925 17.5481 10.0241C17.5481 12.1822 16.6961 14.1413 15.3102 15.5835C15.2657 15.612 15.2237 15.6457 15.1848 15.6846C15.1459 15.7234 15.1122 15.7655 15.0837 15.81ZM15.7076 17.268C14.0437 18.6897 11.8841 19.5481 9.52406 19.5481C4.26407 19.5481 0 15.2841 0 10.0241C0 4.76407 4.26407 0.5 9.52406 0.5C14.7841 0.5 19.0481 4.76407 19.0481 10.0241C19.0481 12.384 18.1898 14.5435 16.7682 16.2074L20.0551 19.4942C20.348 19.7871 20.348 20.262 20.0551 20.5549C19.7622 20.8478 19.2873 20.8478 18.9944 20.5549L15.7076 17.268Z" fill="white"/>
</svg>
